<?xml version="1.0" encoding="UTF-8"?>
<svg width="1823px" height="1069px" viewBox="0 0 1823 1069" version="1.1" xmlns="http://www.w3.org/2000/svg" xmlns:xlink="http://www.w3.org/1999/xlink">
    <!-- Generator: Sketch 52.6 (67491) - http://www.bohemiancoding.com/sketch -->
    <title>Confettis</title>
    <desc>Created with Sketch.</desc>
    <g id="Page-1" stroke="none" stroke-width="1" fill="none" fill-rule="evenodd">
        <g id="Artboard-Copy-6" transform="translate(-41.000000, -11.000000)">
            <g id="Confettis" transform="translate(41.000000, 11.000000)">
                <rect id="Rectangle" stroke="#605FFE" stroke-width="4" opacity="0.73" transform="translate(1803.231798, 319.502111) rotate(-343.000000) translate(-1803.231798, -319.502111) " x="1788.7318" y="305.002111" width="29" height="29" rx="4"></rect>
                <rect id="Rectangle" stroke="#605FFE" stroke-width="4" opacity="0.86" transform="translate(1671.520960, 204.995506) rotate(-173.000000) translate(-1671.520960, -204.995506) " x="1661.52096" y="194.995506" width="20" height="20" rx="4"></rect>
                <rect id="Rectangle" stroke="#605FFE" stroke-width="4" opacity="0.9" transform="translate(1219.829938, 202.231814) rotate(-268.000000) translate(-1219.829938, -202.231814) " x="1204.82994" y="187.231814" width="30" height="30" rx="4"></rect>
                <rect id="Rectangle" stroke="#605FFE" stroke-width="4" opacity="0.96" transform="translate(980.219120, 817.447053) rotate(-144.000000) translate(-980.219120, -817.447053) " x="969.71912" y="806.947053" width="21" height="21" rx="4"></rect>
                <rect id="Rectangle" stroke="#605FFE" stroke-width="4" opacity="0.94" transform="translate(720.922404, 56.695883) rotate(-1.000000) translate(-720.922404, -56.695883) " x="705.922404" y="41.6958827" width="30" height="30" rx="4"></rect>
                <rect id="Rectangle" stroke="#605FFE" stroke-width="4" opacity="0.74" transform="translate(21.208140, 891.064371) rotate(-282.000000) translate(-21.208140, -891.064371) " x="5.70813981" y="875.564371" width="31" height="31" rx="4"></rect>
                <rect id="Rectangle-Copy-6" fill="#F3C118" opacity="0.84" transform="translate(1387.107557, 468.349834) rotate(-115.000000) translate(-1387.107557, -468.349834) " x="1373.10756" y="454.349834" width="28" height="28" rx="4"></rect>
                <rect id="Rectangle-Copy-6" fill="#F3C118" opacity="0.87" transform="translate(1308.148616, 364.905297) rotate(-256.000000) translate(-1308.148616, -364.905297) " x="1297.14862" y="353.905297" width="22" height="22" rx="4"></rect>
                <rect id="Rectangle-Copy-6" fill="#F3C118" opacity="0.88" transform="translate(975.196021, 1058.571107) rotate(-304.000000) translate(-975.196021, -1058.571107) " x="962.696021" y="1046.07111" width="25" height="25" rx="4"></rect>
                <rect id="Rectangle-Copy-6" fill="#F3C118" opacity="0.84" transform="translate(859.047717, 590.240733) rotate(-318.000000) translate(-859.047717, -590.240733) " x="846.547717" y="577.740733" width="25" height="25" rx="4"></rect>
                <rect id="Rectangle-Copy-6" fill="#F3C118" opacity="0.77" transform="translate(412.400726, 12.967824) rotate(-88.000000) translate(-412.400726, -12.967824) " x="400.400726" y="0.96782405" width="24" height="24" rx="4"></rect>
                <circle id="Oval" fill="#605FFE" opacity="0.79" transform="translate(1604.489595, 221.504610) rotate(-174.000000) translate(-1604.489595, -221.504610) " cx="1604.48959" cy="221.50461" r="14"></circle>
                <circle id="Oval" fill="#605FFE" opacity="0.9" transform="translate(1472.175826, 104.602545) rotate(-173.000000) translate(-1472.175826, -104.602545) " cx="1472.17583" cy="104.602545" r="15"></circle>
                <circle id="Oval" fill="#605FFE" opacity="0.97" transform="translate(801.087124, 515.729113) rotate(-194.000000) translate(-801.087124, -515.729113) " cx="801.087124" cy="515.729113" r="14"></circle>
                <circle id="Oval" fill="#605FFE" opacity="0.73" transform="translate(346.230214, 599.781208) rotate(-195.000000) translate(-346.230214, -599.781208) " cx="346.230214" cy="599.781208" r="14.5"></circle>
                <circle id="Oval" fill="#605FFE" opacity="0.78" transform="translate(433.116147, 308.106901) rotate(-211.000000) translate(-433.116147, -308.106901) " cx="433.116147" cy="308.106901" r="17"></circle>
                <circle id="Oval" fill="#605FFE" opacity="0.81" transform="translate(119.982848, 550.703973) rotate(-297.000000) translate(-119.982848, -550.703973) " cx="119.982848" cy="550.703973" r="15.5"></circle>
                <circle id="Oval" fill="#605FFE" opacity="0.84" transform="translate(133.110766, 333.627181) rotate(-73.000000) translate(-133.110766, -333.627181) " cx="133.110766" cy="333.627181" r="14"></circle>
                <circle id="Oval-Copy" stroke="#F3C118" stroke-width="4" opacity="0.83" transform="translate(1680.478970, 1018.002365) rotate(-220.000000) translate(-1680.478970, -1018.002365) " cx="1680.47897" cy="1018.00236" r="16"></circle>
                <circle id="Oval-Copy" stroke="#F3C118" stroke-width="4" opacity="0.89" transform="translate(826.778107, 207.354525) rotate(-247.000000) translate(-826.778107, -207.354525) " cx="826.778107" cy="207.354525" r="15"></circle>
                <g id="circle-with-dot" opacity="0.85" transform="translate(1219.492494, 112.955594) rotate(-73.000000) translate(-1219.492494, -112.955594) translate(1206.992494, 100.455594)">
                    <circle id="Oval-Copy-2" stroke="#00E2E1" stroke-width="4" cx="12.5" cy="12.5" r="10.5"></circle>
                    <circle id="Oval" fill="#00E2E1" cx="12.9310345" cy="12.9310345" r="2.5862069"></circle>
                </g>
                <g id="circle-with-dot" opacity="0.94" transform="translate(967.762779, 721.321983) rotate(-213.000000) translate(-967.762779, -721.321983) translate(953.262779, 706.821983)">
                    <circle id="Oval-Copy-2" stroke="#00E2E1" stroke-width="4" cx="14.5" cy="14.5" r="12.5"></circle>
                    <circle id="Oval" fill="#00E2E1" cx="15" cy="15" r="3"></circle>
                </g>
                <g id="circle-with-dot" opacity="0.85" transform="translate(189.283949, 507.530575) rotate(-311.000000) translate(-189.283949, -507.530575) translate(175.783949, 494.030575)">
                    <circle id="Oval-Copy-2" stroke="#00E2E1" stroke-width="4" cx="13.5" cy="13.5" r="11.5"></circle>
                    <circle id="Oval" fill="#00E2E1" cx="13.9655172" cy="13.9655172" r="2.79310345"></circle>
                </g>
                <polyline id="Line" stroke="#F3C118" stroke-width="4" stroke-linejoin="round" transform="translate(1724.559818, 773.476203) rotate(-178.000000) translate(-1724.559818, -773.476203) " points="1728.05982 748.976203 1721.05982 755.101203 1728.05982 761.226203 1721.05982 767.351203 1728.05982 773.476203 1721.05982 779.601203 1728.05982 785.726203 1721.05982 791.851203 1728.05982 797.976203"></polyline>
                <polyline id="Line" stroke="#F3C118" stroke-width="4" opacity="0.75" stroke-linejoin="round" transform="translate(1759.971040, 479.603176) rotate(-54.000000) translate(-1759.971040, -479.603176) " points="1762.47104 459.603176 1757.47104 464.603176 1762.47104 469.603176 1757.47104 474.603176 1762.47104 479.603176 1757.47104 484.603176 1762.47104 489.603176 1757.47104 494.603176 1762.47104 499.603176"></polyline>
                <polyline id="Line" stroke="#F3C118" stroke-width="4" opacity="0.78" stroke-linejoin="round" transform="translate(1342.961480, 559.251205) rotate(-355.000000) translate(-1342.961480, -559.251205) " points="1345.96148 536.751205 1339.96148 542.376205 1345.96148 548.001205 1339.96148 553.626205 1345.96148 559.251205 1339.96148 564.876205 1345.96148 570.501205 1339.96148 576.126205 1345.96148 581.751205"></polyline>
                <polyline id="Line" stroke="#F3C118" stroke-width="4" opacity="0.73" stroke-linejoin="round" transform="translate(530.913150, 464.430011) rotate(-330.000000) translate(-530.913150, -464.430011) " points="533.91315 441.930011 527.91315 447.555011 533.91315 453.180011 527.91315 458.805011 533.91315 464.430011 527.91315 470.055011 533.91315 475.680011 527.91315 481.305011 533.91315 486.930011"></polyline>
                <polyline id="Line" stroke="#F3C118" stroke-width="4" opacity="0.98" stroke-linejoin="round" transform="translate(92.606207, 1055.605341) rotate(-28.000000) translate(-92.606207, -1055.605341) " points="95.1062072 1037.10534 90.1062072 1041.73034 95.1062072 1046.35534 90.1062072 1050.98034 95.1062072 1055.60534 90.1062072 1060.23034 95.1062072 1064.85534 90.1062072 1069.48034 95.1062072 1074.10534"></polyline>
                <path d="M1540.11845,488.274673 L1529.1548,496.240231 L1533.34254,509.128775 L1546.89436,509.128775 L1551.0821,496.240231 L1540.11845,488.274673 Z" id="Polygon" stroke="#FE7D88" stroke-width="4" opacity="0.96" transform="translate(1540.118453, 499.802537) rotate(-107.000000) translate(-1540.118453, -499.802537) "></path>
                <path d="M725.878851,868.339918 L714.915201,876.305476 L719.102943,889.19402 L732.65476,889.19402 L736.842502,876.305476 L725.878851,868.339918 Z" id="Polygon" stroke="#FE7D88" stroke-width="4" opacity="0.85" transform="translate(725.878851, 879.867782) rotate(-359.000000) translate(-725.878851, -879.867782) "></path>
                <g id="polygon-with-dot" opacity="0.94" transform="translate(1502.221455, 884.635282) rotate(-85.000000) translate(-1502.221455, -884.635282) translate(1484.721455, 867.135282)">
                    <path d="M17.5,2.47213595 L3.20765197,12.8561346 L8.66684314,29.6577974 L26.3331569,29.6577974 L31.792348,12.8561346 L17.5,2.47213595 Z" id="Polygon-Copy-2" stroke="#605FFE" stroke-width="4"></path>
                    <circle id="Oval" fill="#605FFE" cx="18.1034483" cy="18.1034483" r="3.62068966"></circle>
                </g>
                <g id="polygon-with-dot" opacity="0.87" transform="translate(1124.478352, 236.267243) rotate(-244.000000) translate(-1124.478352, -236.267243) translate(1111.978352, 223.767243)">
                    <path d="M12.5,2.47213595 L2.96293456,9.40121959 L6.6057694,20.6127124 L18.3942306,20.6127124 L22.0370654,9.40121959 L12.5,2.47213595 Z" id="Polygon-Copy-2" stroke="#605FFE" stroke-width="4"></path>
                    <circle id="Oval" fill="#605FFE" cx="12.9310345" cy="12.9310345" r="2.5862069"></circle>
                </g>
                <g id="polygon-with-dot" opacity="0.87" transform="translate(602.638536, 1028.542822) rotate(-25.000000) translate(-602.638536, -1028.542822) translate(588.638536, 1014.542822)">
                    <path d="M14,2.47213595 L3.03634978,10.4376941 L7.22409152,23.3262379 L20.7759085,23.3262379 L24.9636502,10.4376941 L14,2.47213595 Z" id="Polygon-Copy-2" stroke="#605FFE" stroke-width="4"></path>
                    <circle id="Oval" fill="#605FFE" cx="14.4827586" cy="14.4827586" r="2.89655172"></circle>
                </g>
                <g id="polygon-with-dot" opacity="0.87" transform="translate(494.544282, 576.115707) rotate(-336.000000) translate(-494.544282, -576.115707) translate(477.044282, 558.615707)">
                    <path d="M17.5,2.47213595 L3.20765197,12.8561346 L8.66684314,29.6577974 L26.3331569,29.6577974 L31.792348,12.8561346 L17.5,2.47213595 Z" id="Polygon-Copy-2" stroke="#605FFE" stroke-width="4"></path>
                    <circle id="Oval" fill="#605FFE" cx="18.1034483" cy="18.1034483" r="3.62068966"></circle>
                </g>
                <g id="polygon-with-dot" opacity="0.82" transform="translate(412.993727, 882.611859) rotate(-127.000000) translate(-412.993727, -882.611859) translate(398.993727, 868.611859)">
                    <path d="M14,2.47213595 L3.03634978,10.4376941 L7.22409152,23.3262379 L20.7759085,23.3262379 L24.9636502,10.4376941 L14,2.47213595 Z" id="Polygon-Copy-2" stroke="#605FFE" stroke-width="4"></path>
                    <circle id="Oval" fill="#605FFE" cx="14.4827586" cy="14.4827586" r="2.89655172"></circle>
                </g>
                <g id="polygon-with-dot" opacity="0.88" transform="translate(423.236167, 695.607078) rotate(-114.000000) translate(-423.236167, -695.607078) translate(407.236167, 679.607078)">
                    <path d="M16,2.47213595 L3.13423675,11.8196601 L8.04852102,26.9442719 L23.951479,26.9442719 L28.8657633,11.8196601 L16,2.47213595 Z" id="Polygon-Copy-2" stroke="#605FFE" stroke-width="4"></path>
                    <circle id="Oval" fill="#605FFE" cx="16.5517241" cy="16.5517241" r="3.31034483"></circle>
                </g>
                <polygon id="Polygon-Copy" fill="#00E2E1" opacity="0.86" transform="translate(1776.688211, 645.977213) rotate(-317.000000) translate(-1776.688211, -645.977213) " points="1776.68821 632.477213 1789.52747 641.805483 1784.62331 656.898942 1768.75311 656.898942 1763.84895 641.805483"></polygon>
                <polygon id="Polygon-Copy" fill="#00E2E1" opacity="0.79" transform="translate(951.422468, 461.512871) rotate(-325.000000) translate(-951.422468, -461.512871) " points="951.422468 446.012871 966.163844 456.723108 960.53314 474.052634 942.311797 474.052634 936.681092 456.723108"></polygon>
                <path d="M1449.25814,698.59146 L1449.25814,718.503614" id="Line-2" stroke="#605FFE" stroke-width="4" stroke-linecap="square" transform="translate(1449.258141, 708.538828) rotate(-92.000000) translate(-1449.258141, -708.538828) "></path>
                <path d="M1357.16829,833.213964 L1357.16829,849.333327" id="Line-2" stroke="#605FFE" stroke-width="4" opacity="0.82" stroke-linecap="square" transform="translate(1357.168288, 841.266595) rotate(-266.000000) translate(-1357.168288, -841.266595) "></path>
                <path d="M1022.83701,50.3328891 L1022.83701,68.3486482" id="Line-2" stroke="#605FFE" stroke-width="4" opacity="0.9" stroke-linecap="square" transform="translate(1022.837009, 59.332889) rotate(-224.000000) translate(-1022.837009, -59.332889) "></path>
                <path d="M704.213177,764.671047 L704.213177,782.686806" id="Line-2" stroke="#605FFE" stroke-width="4" opacity="0.96" stroke-linecap="square" transform="translate(704.213177, 773.671047) rotate(-211.000000) translate(-704.213177, -773.671047) "></path>
                <path d="M611.723625,183.392756 L611.723625,203.30491" id="Line-2" stroke="#605FFE" stroke-width="4" opacity="0.77" stroke-linecap="square" transform="translate(611.723625, 193.340124) rotate(-338.000000) translate(-611.723625, -193.340124) "></path>
                <path d="M627.007804,78.5864747 L627.007804,95.654036" id="Line-2" stroke="#605FFE" stroke-width="4" opacity="0.86" stroke-linecap="square" transform="translate(627.007804, 87.112790) rotate(-132.000000) translate(-627.007804, -87.112790) "></path>
                <path d="M281.180266,434.440035 L281.180266,451.507597" id="Line-2" stroke="#605FFE" stroke-width="4" opacity="0.81" stroke-linecap="square" transform="translate(281.180266, 442.966351) rotate(-21.000000) translate(-281.180266, -442.966351) "></path>
                <polyline id="Line-2-Copy" stroke="#00E2E1" stroke-width="4" opacity="0.7" stroke-linecap="square" transform="translate(1441.848231, 275.937195) rotate(-49.000000) translate(-1441.848231, -275.937195) " points="1441.84823 265.937195 1444.84823 272.603862 1438.84823 279.270528 1442.84823 285.937195"></polyline>
                <polyline id="Line-2-Copy" stroke="#00E2E1" stroke-width="4" opacity="0.89" stroke-linecap="square" transform="translate(1322.701193, 954.171363) rotate(-221.000000) translate(-1322.701193, -954.171363) " points="1322.70119 944.171363 1325.70119 950.83803 1319.70119 957.504696 1323.70119 964.171363"></polyline>
                <polyline id="Line-2-Copy" stroke="#00E2E1" stroke-width="4" opacity="0.89" stroke-linecap="square" transform="translate(634.374834, 705.346440) rotate(-65.000000) translate(-634.374834, -705.346440) " points="634.374834 693.84644 637.874834 701.513107 630.874834 709.179773 635.541501 716.84644"></polyline>
                <polyline id="Line-2-Copy" stroke="#00E2E1" stroke-width="4" opacity="0.82" stroke-linecap="square" transform="translate(5.114817, 208.963697) rotate(-187.000000) translate(-5.114817, -208.963697) " points="5.11481736 201.463697 7.11481736 206.463697 3.11481736 211.463697 5.78148403 216.463697"></polyline>
                <g id="Cross" opacity="0.7" transform="translate(1773.004282, 919.319234) rotate(-199.000000) translate(-1773.004282, -919.319234) translate(1759.004282, 905.819234)" stroke="#00E2E1" stroke-linecap="round" stroke-linejoin="round" stroke-width="4">
                    <path d="M-3.22337364,12.7992492 L31.6130888,12.9400595" id="Line-3" transform="translate(14.194858, 12.869654) rotate(-315.000000) translate(-14.194858, -12.869654) "></path>
                    <path d="M-2.79296081,13.7668444 L32.0435016,13.6260341" id="Line-3" transform="translate(14.625270, 13.696439) rotate(-225.000000) translate(-14.625270, -13.696439) "></path>
                </g>
                <g id="Cross" opacity="0.99" transform="translate(1731.716730, 83.055347) rotate(-260.000000) translate(-1731.716730, -83.055347) translate(1718.716730, 70.555347)" stroke="#00E2E1" stroke-linecap="round" stroke-linejoin="round" stroke-width="4">
                    <path d="M-2.96999955,11.8741035 L29.3318779,11.9585897" id="Line-3" transform="translate(13.180939, 11.916347) rotate(-315.000000) translate(-13.180939, -11.916347) "></path>
                    <path d="M-2.5703305,12.7241313 L29.731547,12.6396451" id="Line-3" transform="translate(13.580608, 12.681888) rotate(-225.000000) translate(-13.580608, -12.681888) "></path>
                </g>
                <g id="Cross" opacity="0.8" transform="translate(1544.512054, 556.100854) rotate(-120.000000) translate(-1544.512054, -556.100854) translate(1532.512054, 544.600854)" stroke="#00E2E1" stroke-linecap="round" stroke-linejoin="round" stroke-width="4">
                    <path d="M-2.71662546,10.9489579 L27.050667,10.9771199" id="Line-3" transform="translate(12.167021, 10.963039) rotate(-315.000000) translate(-12.167021, -10.963039) "></path>
                    <path d="M-2.34770018,11.6814181 L27.4195923,11.6532561" id="Line-3" transform="translate(12.535946, 11.667337) rotate(-225.000000) translate(-12.535946, -11.667337) "></path>
                </g>
                <g id="Cross" opacity="0.8" transform="translate(1297.953557, 738.356331) rotate(-332.000000) translate(-1297.953557, -738.356331) translate(1287.953557, 728.856331)" stroke="#00E2E1" stroke-linecap="round" stroke-linejoin="round" stroke-width="4">
                    <path d="M-2.20987727,9.09866651 L22.4882453,9.01418034" id="Line-3" transform="translate(10.139184, 9.056423) rotate(-315.000000) translate(-10.139184, -9.056423) "></path>
                    <path d="M-1.90243954,9.59599193 L22.795683,9.68047809" id="Line-3" transform="translate(10.446622, 9.638235) rotate(-225.000000) translate(-10.446622, -9.638235) "></path>
                </g>
                <g id="Cross" opacity="0.81" transform="translate(848.239387, 342.102994) rotate(-52.000000) translate(-848.239387, -342.102994) translate(834.239387, 329.102994)" stroke="#00E2E1" stroke-linecap="round" stroke-linejoin="round" stroke-width="4">
                    <path d="M-2.89951,12.646459 L31.2892252,12.139542" id="Line-3" transform="translate(14.194858, 12.393000) rotate(-315.000000) translate(-14.194858, -12.393000) "></path>
                    <path d="M-2.46909718,12.9357052 L31.719638,13.4426222" id="Line-3" transform="translate(14.625270, 13.189164) rotate(-225.000000) translate(-14.625270, -13.189164) "></path>
                </g>
                <g id="Cross" opacity="0.97" transform="translate(87.057180, 684.795876) rotate(-347.000000) translate(-87.057180, -684.795876) translate(74.057180, 672.295876)" stroke="#00E2E1" stroke-linecap="round" stroke-linejoin="round" stroke-width="4">
                    <path d="M-2.96999955,11.8741035 L29.3318779,11.9585897" id="Line-3" transform="translate(13.180939, 11.916347) rotate(-315.000000) translate(-13.180939, -11.916347) "></path>
                    <path d="M-2.5703305,12.7241313 L29.731547,12.6396451" id="Line-3" transform="translate(13.580608, 12.681888) rotate(-225.000000) translate(-13.580608, -12.681888) "></path>
                </g>
                <polygon id="Triangle" fill="#FE7D88" opacity="0.89" transform="translate(938.425038, 602.575451) rotate(-341.000000) translate(-938.425038, -602.575451) " points="938.425038 590.575451 950.425038 614.575451 926.425038 614.575451"></polygon>
                <polygon id="Triangle" fill="#FE7D88" opacity="0.98" transform="translate(236.123702, 958.815713) rotate(-86.000000) translate(-236.123702, -958.815713) " points="236.123702 944.815713 250.123702 972.815713 222.123702 972.815713"></polygon>
                <polygon id="Triangle" fill="#FE7D88" opacity="0.99" transform="translate(290.403137, 214.838591) rotate(-104.000000) translate(-290.403137, -214.838591) " points="290.403137 201.838591 303.403137 227.838591 277.403137 227.838591"></polygon>
                <path d="M1532.65634,1013.05699 L1521.39241,1035.58486 L1543.92027,1035.58486 L1532.65634,1013.05699 Z" id="Triangle-Copy" stroke="#FE7D88" stroke-width="4" opacity="0.92" transform="translate(1532.656341, 1023.084856) rotate(-138.000000) translate(-1532.656341, -1023.084856) "></path>
                <path d="M997.189721,328.666612 L987.925789,347.194476 L1006.45365,347.194476 L997.189721,328.666612 Z" id="Triangle-Copy" stroke="#FE7D88" stroke-width="4" opacity="0.87" transform="translate(997.189721, 336.694476) rotate(-70.000000) translate(-997.189721, -336.694476) "></path>
                <path d="M765.338539,975.476006 L756.074607,994.00387 L774.602471,994.00387 L765.338539,975.476006 Z" id="Triangle-Copy" stroke="#FE7D88" stroke-width="4" opacity="0.93" transform="translate(765.338539, 983.503870) rotate(-142.000000) translate(-765.338539, -983.503870) "></path>
                <path d="M541.269861,830.179669 L528.005929,856.707533 L554.533793,856.707533 L541.269861,830.179669 Z" id="Triangle-Copy" stroke="#FE7D88" stroke-width="4" opacity="0.77" transform="translate(541.269861, 842.207533) rotate(-95.000000) translate(-541.269861, -842.207533) "></path>
                <path d="M547.960188,317.260303 L536.696256,339.788167 L559.22412,339.788167 L547.960188,317.260303 Z" id="Triangle-Copy" stroke="#FE7D88" stroke-width="4" opacity="0.99" transform="translate(547.960188, 327.288167) rotate(-334.000000) translate(-547.960188, -327.288167) "></path>
            </g>
        </g>
    </g>
</svg>